<?xml version="1.0" encoding="utf-8"?>
<!-- Generator: Adobe Illustrator 16.0.0, SVG Export Plug-In . SVG Version: 6.00 Build 0)  -->
<!DOCTYPE svg PUBLIC "-//W3C//DTD SVG 1.1//EN" "http://www.w3.org/Graphics/SVG/1.1/DTD/svg11.dtd">
<svg version="1.1" id="Layer_1" xmlns="http://www.w3.org/2000/svg" xmlns:xlink="http://www.w3.org/1999/xlink" x="0px" y="0px"
	 width="126.341px" height="45.384px" viewBox="0 0 126.341 45.384" enable-background="new 0 0 126.341 45.384"
	 xml:space="preserve">
<g>
	<path fill="#CC7D27" d="M125.078,16.08c-0.523,0.871-1.306,2.177-3.004,2.177c-0.175,0-0.306,0-0.437-0.043
		c-0.305-3.702-1.785-5.705-4.877-5.705c-8.895,0-11.364,10.188-11.405,15.242c-1.428,3.564-3.277,4.96-6.185,5.877l4.44-20.9
		h-4.354l-0.436,2.09c-0.435-1.785-2.177-2.308-3.57-2.308c-7.314,0-11.146,8.839-11.146,14.282c0,0.338,0.014,0.659,0.037,0.97
		c-1.188,2.437-2.382,3.689-3.608,3.689c-1.045,0-1.307-0.915-1.307-2.134c0-3.483,2.09-8.012,2.09-11.887
		c0-2.656-0.958-4.92-4.484-4.92c-1.523,0-3.658,0.436-5.922,3.483l0.696-3.265h-4.397l-3.003,14.164
		c-1.244,2.844-2.689,4.56-4.052,4.56c-1.088,0-1.35-0.958-1.35-1.959c0-0.697,0.088-1.437,0.218-1.96l3.179-14.804h-4.397
		l-0.436,2.09c-0.436-1.785-2.178-2.308-3.57-2.308c-7.315,0-11.147,9.362-11.147,15.24c0,0.03,0.003,0.055,0.003,0.084
		c-1.178,2.391-2.359,3.617-3.574,3.617c-1.044,0-1.306-0.915-1.306-2.134c0-3.483,2.09-8.012,2.09-11.887
		c0-2.656-0.958-4.92-4.484-4.92c-1.524,0-3.658,0.436-5.922,3.483l2.569-11.974l-4.485,0.61l-4.786,22.335
		c-2.219,3.311-4.828,4.922-8.669,4.922c-5.922,0-6.793-3.831-6.793-7.881c0-8.752,4.05-20.596,10.973-20.596
		c2.003,0,3.223,1.001,3.223,2.917c0,2.134-1.089,4.093-1.873,4.572c0.393,0.522,1.133,0.783,1.829,0.783
		c2.221,0,3.048-1.741,3.048-3.918c0-4.311-3.222-5.922-7.098-5.922c-11.713,0-15.37,14.805-15.37,22.686
		c0,7.446,3.266,10.668,8.97,10.668c4.209,0,8.357-1.782,11.085-5.079l-0.938,4.382h4.354l3.005-14.02
		c1.394-3.179,3.005-4.659,4.833-4.659c1.48,0,1.916,0.958,1.916,2.395c0,3.091-2.09,7.794-2.09,11.625
		c0,2.787,1.176,4.92,4.18,4.92c1.405,0,3.459-0.474,5.65-4.239c0.813,3.031,2.994,4.239,5.235,4.239
		c2.787,0,5.27-1.916,6.619-4.267c0.218,3.004,1.567,4.267,3.482,4.267c1.282,0,2.975-0.362,4.801-2.771l-0.532,2.51h4.354
		l3.004-14.02c1.437-3.136,3.005-4.659,4.833-4.659c1.48,0,1.916,0.958,1.916,2.395c0,3.091-2.09,7.794-2.09,11.625
		c0,2.787,1.175,4.92,4.181,4.92c1.447,0,3.581-0.488,5.846-4.57c0.932,2.571,2.96,3.612,5.04,3.612c2.134,0,4.18-1.132,5.66-2.743
		l-0.826,4.006c-3.267,1.306-6.968,3.526-6.968,6.4c0,2.831,2.134,3.919,4.79,3.919c2.874,0,4.615-1.176,5.922-7.402l0.565-2.787
		c2.993-0.716,5.135-1.701,6.881-4.695c0.892,3.029,3.414,4.259,6.443,4.259c5.399,0,8.97-5.748,9.449-13.368
		c2.264-0.958,3.831-3.309,4.746-5.312H125.078z M54.843,26.704c-0.566,2.657-2.961,4.746-4.79,4.746
		c-1.654,0-2.743-1.001-2.743-4.311c0-4.354,2.656-12.236,7.446-12.236c1.306,0,2.003,0.958,2.177,1.916L54.843,26.704z
		 M93.857,38.069c-0.652,3.004-1.393,5.051-3.004,5.051c-1.046,0-1.611-0.74-1.611-1.698c0-1.567,1.698-3.353,4.92-4.746
		L93.857,38.069z M96.34,26.312c-0.74,2.395-3.179,4.18-4.833,4.18s-2.743-1.001-2.743-4.311c0-4.05,2.656-11.278,7.445-11.278
		c1.307,0,2.003,0.958,2.178,1.873L96.34,26.312z M119.461,21.784c-0.609,6.053-3.048,9.667-5.661,9.667
		c-2.699,0-3.657-1.35-3.657-4.354c0-4.354,2.438-12.192,6.836-12.192c1.351,0,2.265,0.61,2.569,2.395
		c-1.045,0.175-1.828,1.001-1.828,2.438C117.72,21.131,118.329,21.74,119.461,21.784z"/>
	<path fill="#603813" d="M123.054,14.238c-0.523,0.871-1.306,2.177-3.004,2.177c-0.175,0-0.306,0-0.437-0.043
		c-0.305-3.702-1.785-5.705-4.877-5.705c-8.895,0-11.364,10.188-11.405,15.242c-1.428,3.563-3.277,4.96-6.185,5.876l4.44-20.9
		h-4.354l-0.436,2.09c-0.435-1.785-2.177-2.308-3.57-2.308c-7.314,0-11.146,8.839-11.146,14.282c0,0.338,0.014,0.659,0.037,0.97
		c-1.188,2.438-2.382,3.689-3.608,3.689c-1.045,0-1.307-0.914-1.307-2.134c0-3.483,2.09-8.012,2.09-11.887
		c0-2.656-0.958-4.921-4.484-4.921c-1.523,0-3.658,0.436-5.922,3.483l0.696-3.265h-4.397l-3.003,14.164
		c-1.244,2.845-2.689,4.56-4.052,4.56c-1.088,0-1.35-0.958-1.35-1.959c0-0.697,0.088-1.437,0.218-1.96l3.179-14.804h-4.397
		l-0.436,2.09c-0.436-1.785-2.178-2.308-3.57-2.308c-7.315,0-11.147,9.362-11.147,15.24c0,0.029,0.003,0.055,0.003,0.084
		c-1.178,2.391-2.359,3.617-3.574,3.617c-1.044,0-1.306-0.914-1.306-2.134c0-3.483,2.09-8.012,2.09-11.887
		c0-2.656-0.958-4.921-4.484-4.921c-1.524,0-3.658,0.436-5.922,3.483l2.569-11.974l-4.485,0.609L20.73,25.122
		c-2.219,3.311-4.828,4.922-8.669,4.922c-5.922,0-6.793-3.832-6.793-7.881c0-8.752,4.05-20.596,10.973-20.596
		c2.003,0,3.223,1.001,3.223,2.917c0,2.134-1.089,4.093-1.873,4.572c0.393,0.522,1.133,0.783,1.829,0.783
		c2.221,0,3.048-1.741,3.048-3.918C22.468,1.611,19.246,0,15.37,0C3.657,0,0,14.804,0,22.686c0,7.445,3.266,10.668,8.97,10.668
		c4.209,0,8.357-1.783,11.085-5.079l-0.938,4.382h4.354l3.005-14.021c1.394-3.179,3.005-4.659,4.833-4.659
		c1.48,0,1.916,0.958,1.916,2.395c0,3.091-2.09,7.794-2.09,11.625c0,2.787,1.176,4.921,4.18,4.921c1.405,0,3.459-0.474,5.65-4.239
		c0.813,3.03,2.994,4.239,5.235,4.239c2.787,0,5.27-1.916,6.619-4.268c0.218,3.004,1.567,4.268,3.482,4.268
		c1.282,0,2.975-0.362,4.801-2.771l-0.532,2.51h4.354l3.004-14.021c1.437-3.135,3.005-4.659,4.833-4.659
		c1.48,0,1.916,0.958,1.916,2.395c0,3.091-2.09,7.794-2.09,11.625c0,2.787,1.175,4.921,4.181,4.921c1.447,0,3.581-0.489,5.846-4.571
		c0.932,2.571,2.96,3.613,5.04,3.613c2.134,0,4.18-1.132,5.66-2.743l-0.826,4.006c-3.267,1.306-6.968,3.526-6.968,6.4
		c0,2.831,2.134,3.919,4.79,3.919c2.874,0,4.615-1.176,5.922-7.402l0.565-2.786c2.993-0.717,5.135-1.701,6.881-4.695
		c0.892,3.029,3.414,4.26,6.443,4.26c5.399,0,8.97-5.748,9.449-13.368c2.264-0.958,3.831-3.309,4.746-5.312H123.054z M52.818,24.863
		c-0.566,2.656-2.961,4.746-4.79,4.746c-1.654,0-2.743-1.001-2.743-4.311c0-4.354,2.656-12.236,7.446-12.236
		c1.306,0,2.003,0.958,2.177,1.916L52.818,24.863z M91.833,36.228c-0.652,3.004-1.393,5.051-3.004,5.051
		c-1.046,0-1.611-0.741-1.611-1.699c0-1.568,1.698-3.352,4.92-4.746L91.833,36.228z M94.315,24.471
		c-0.74,2.395-3.179,4.18-4.833,4.18s-2.743-1.001-2.743-4.311c0-4.05,2.656-11.278,7.445-11.278c1.307,0,2.003,0.958,2.178,1.873
		L94.315,24.471z M117.437,19.943c-0.609,6.052-3.048,9.666-5.661,9.666c-2.699,0-3.657-1.35-3.657-4.354
		c0-4.354,2.438-12.192,6.836-12.192c1.351,0,2.265,0.61,2.569,2.395c-1.045,0.175-1.828,1.001-1.828,2.438
		C115.695,19.29,116.305,19.899,117.437,19.943z"/>
</g>
</svg>
