<?xml version="1.0" encoding="utf-8"?>
<!-- Generator: Adobe Illustrator 16.0.0, SVG Export Plug-In . SVG Version: 6.00 Build 0)  -->
<!DOCTYPE svg PUBLIC "-//W3C//DTD SVG 1.1//EN" "http://www.w3.org/Graphics/SVG/1.1/DTD/svg11.dtd">
<svg version="1.1" id="Layer_1" xmlns="http://www.w3.org/2000/svg" xmlns:xlink="http://www.w3.org/1999/xlink" x="0px" y="0px"
	 width="64px" height="64px" viewBox="0 0 64 64" enable-background="new 0 0 64 64" xml:space="preserve">
<g>
	<g opacity="0.4">
		<circle fill="#603813" cx="32" cy="28.763" r="23.309"/>
		<path fill="#603813" d="M32,49.854c-11.766,0-21.34-9.502-21.34-21.183c0-11.674,9.574-21.172,21.34-21.172
			c11.768,0,21.336,9.499,21.336,21.172C53.336,40.354,43.768,49.854,32,49.854z"/>
		<path fill="#603813" d="M32,21.77c2.582,0,4.675-2.09,4.675-4.673S34.582,12.422,32,12.422s-4.675,2.093-4.675,4.675
			C27.325,19.678,29.417,21.77,32,21.77z M36.777,22.553h-9.555c-1.043,0-1.89,0.848-1.89,1.891v9.898h2.7v10.244h7.936V34.342h2.7
			v-9.898C38.668,23.401,37.82,22.553,36.777,22.553z"/>
	</g>
	<g>
		<g>
			<g>
				<g>
					<circle fill="#FFFFFF" cx="32" cy="26.763" r="23.309"/>
					<g>
						<path fill="#FBB147" d="M57.502,26.671C57.502,12.7,46.062,1.334,32,1.334C17.938,1.334,6.498,12.7,6.498,26.67
							c0,9.375,5.15,17.575,12.785,21.959c1.899,1.091,3.953,1.945,6.119,2.521c-0.072,0.074,5.767,9.103,5.767,9.103
							c0.197,0.259,0.504,0.413,0.831,0.413l0,0c0.325,0,0.633-0.15,0.831-0.413c0,0,5.849-9.026,5.774-9.104
							c2.162-0.578,4.211-1.434,6.104-2.521C52.352,44.25,57.502,36.048,57.502,26.671z M32,47.854
							c-11.766,0-21.34-9.502-21.34-21.183c0-11.674,9.574-21.172,21.34-21.172c11.768,0,21.336,9.499,21.336,21.172
							C53.336,38.354,43.768,47.854,32,47.854z"/>
					</g>
				</g>
			</g>
			<path fill="#FBB147" d="M32,19.77c2.582,0,4.675-2.09,4.675-4.673S34.582,10.422,32,10.422s-4.675,2.093-4.675,4.675
				C27.325,17.678,29.417,19.77,32,19.77z M36.777,20.553h-9.555c-1.043,0-1.89,0.848-1.89,1.891v9.898h2.7v10.244h7.936V32.342h2.7
				v-9.898C38.668,21.401,37.82,20.553,36.777,20.553z"/>
		</g>
	</g>
</g>
</svg>
