<?xml version="1.0" encoding="utf-8"?>
<!-- Generator: Adobe Illustrator 16.0.3, SVG Export Plug-In . SVG Version: 6.00 Build 0)  -->
<!DOCTYPE svg PUBLIC "-//W3C//DTD SVG 1.1//EN" "http://www.w3.org/Graphics/SVG/1.1/DTD/svg11.dtd">
<svg version="1.1" id="Layer_1" xmlns="http://www.w3.org/2000/svg" xmlns:xlink="http://www.w3.org/1999/xlink" x="0px" y="0px"
	 width="80px" height="64px" viewBox="0 0 80 64" enable-background="new 0 0 80 64" xml:space="preserve">
<filter  id="blur" y="0" x="0">
	<feGaussianBlur  in="SourceGraphic" stdDeviation="1.2"></feGaussianBlur>
</filter>
<g opacity="0.6" filter="url(#blur)">
	<path fill="#757575" d="M71.687,30.64c-8.381,0-21.972,5.623-30.298,12.537c-5.587,4.64-7.405,8.697-5.467,10.867
		c0.482,0.539,1.197,0.962,2.143,1.247c-0.087,0.038-1.986,4.504-1.986,4.504C36.04,59.924,36.131,60,36.325,60h0.001
		c0.194,0,0.468-0.075,0.74-0.204c0,0,8.866-4.467,8.868-4.505c1.632-0.287,3.362-0.708,5.141-1.247
		c7.162-2.168,15.122-6.228,20.709-10.867C80.112,36.263,80.068,30.64,71.687,30.64z"/>
</g>
</svg>
